<mxfile host="app.diagrams.net" modified="2022-08-30T14:29:25.926Z" agent="5.0 (Macintosh; Intel Mac OS X 10_15_7) AppleWebKit/537.36 (KHTML, like Gecko) Chrome/103.0.0.0 Safari/537.36" etag="wcZMu8MZNhhcSCqXqUme" version="20.2.7" type="github">
  <diagram id="YE6wi1rzTRGx_XcYo57Y" name="第 1 页">
    <mxGraphModel dx="1401" dy="669" grid="0" gridSize="10" guides="1" tooltips="1" connect="1" arrows="1" fold="1" page="0" pageScale="1" pageWidth="827" pageHeight="1169" background="#ffffff" math="0" shadow="0">
      <root>
        <mxCell id="0" />
        <mxCell id="1" parent="0" />
        <mxCell id="CQZ54zgjUK83hAeRp2dm-2" value="" style="rounded=1;whiteSpace=wrap;html=1;dashed=1;strokeColor=#0000FF;" vertex="1" parent="1">
          <mxGeometry x="-28.5" y="186" width="320" height="210" as="geometry" />
        </mxCell>
        <mxCell id="CQZ54zgjUK83hAeRp2dm-12" value="" style="rounded=1;whiteSpace=wrap;html=1;dashed=1;strokeColor=#007FFF;" vertex="1" parent="1">
          <mxGeometry x="367" y="252" width="320" height="88" as="geometry" />
        </mxCell>
        <mxCell id="CQZ54zgjUK83hAeRp2dm-13" value="区块头" style="rounded=0;whiteSpace=wrap;html=1;fillColor=#dae8fc;strokeColor=#6c8ebf;" vertex="1" parent="1">
          <mxGeometry x="376" y="264" width="70" height="30" as="geometry" />
        </mxCell>
        <mxCell id="CQZ54zgjUK83hAeRp2dm-14" value="辅助部门达成共识" style="rounded=0;whiteSpace=wrap;html=1;fillColor=#dae8fc;strokeColor=#6c8ebf;" vertex="1" parent="1">
          <mxGeometry x="406" y="304" width="110" height="30" as="geometry" />
        </mxCell>
        <mxCell id="CQZ54zgjUK83hAeRp2dm-15" value="中小企业签名" style="rounded=0;whiteSpace=wrap;html=1;fillColor=#d5e8d4;strokeColor=#82b366;" vertex="1" parent="1">
          <mxGeometry x="471.5" y="264" width="86" height="30" as="geometry" />
        </mxCell>
        <mxCell id="CQZ54zgjUK83hAeRp2dm-16" value="时间" style="rounded=0;whiteSpace=wrap;html=1;fillColor=#d5e8d4;strokeColor=#82b366;" vertex="1" parent="1">
          <mxGeometry x="551" y="304" width="70" height="30" as="geometry" />
        </mxCell>
        <mxCell id="CQZ54zgjUK83hAeRp2dm-18" value="信贷业务申请" style="rounded=0;whiteSpace=wrap;html=1;fillColor=#f8cecc;strokeColor=#b85450;" vertex="1" parent="1">
          <mxGeometry x="576" y="264" width="90" height="30" as="geometry" />
        </mxCell>
        <mxCell id="CQZ54zgjUK83hAeRp2dm-20" value="哈希值" style="endArrow=classic;html=1;rounded=0;fontSize=15;strokeColor=#1A1A1A;exitX=1;exitY=0.5;exitDx=0;exitDy=0;" edge="1" parent="1" source="CQZ54zgjUK83hAeRp2dm-2" target="CQZ54zgjUK83hAeRp2dm-12">
          <mxGeometry width="50" height="50" relative="1" as="geometry">
            <mxPoint x="400" y="230" as="sourcePoint" />
            <mxPoint x="350" y="290" as="targetPoint" />
          </mxGeometry>
        </mxCell>
        <mxCell id="CQZ54zgjUK83hAeRp2dm-21" value="区块" style="rounded=0;whiteSpace=wrap;html=1;fontSize=15;fillColor=#0050ef;strokeColor=#001DBC;fontColor=#ffffff;" vertex="1" parent="1">
          <mxGeometry x="486" y="391" width="82" height="57" as="geometry" />
        </mxCell>
        <mxCell id="CQZ54zgjUK83hAeRp2dm-22" value="哈希值" style="endArrow=classic;html=1;rounded=0;fontSize=15;strokeColor=#1A1A1A;entryX=0.5;entryY=0;entryDx=0;entryDy=0;exitX=0.5;exitY=1;exitDx=0;exitDy=0;" edge="1" parent="1" source="CQZ54zgjUK83hAeRp2dm-12" target="CQZ54zgjUK83hAeRp2dm-21">
          <mxGeometry width="50" height="50" relative="1" as="geometry">
            <mxPoint x="403" y="420" as="sourcePoint" />
            <mxPoint x="400" y="320" as="targetPoint" />
          </mxGeometry>
        </mxCell>
        <mxCell id="CQZ54zgjUK83hAeRp2dm-23" value="区块链账本" style="rounded=0;whiteSpace=wrap;html=1;fontSize=15;fillColor=#9305FF;strokeColor=#3700CC;fontColor=#ffffff;" vertex="1" parent="1">
          <mxGeometry x="478.5" y="476" width="97" height="59" as="geometry" />
        </mxCell>
        <mxCell id="CQZ54zgjUK83hAeRp2dm-24" value="" style="endArrow=classic;html=1;rounded=0;fontSize=15;strokeColor=#1A1A1A;entryX=0.5;entryY=0;entryDx=0;entryDy=0;exitX=0.5;exitY=1;exitDx=0;exitDy=0;" edge="1" parent="1" source="CQZ54zgjUK83hAeRp2dm-21" target="CQZ54zgjUK83hAeRp2dm-23">
          <mxGeometry width="50" height="50" relative="1" as="geometry">
            <mxPoint x="430" y="330" as="sourcePoint" />
            <mxPoint x="480" y="280" as="targetPoint" />
          </mxGeometry>
        </mxCell>
        <mxCell id="CQZ54zgjUK83hAeRp2dm-39" style="edgeStyle=orthogonalEdgeStyle;rounded=0;orthogonalLoop=1;jettySize=auto;html=1;exitX=0.5;exitY=1;exitDx=0;exitDy=0;entryX=0.5;entryY=0;entryDx=0;entryDy=0;fontSize=15;strokeColor=#1A1A1A;" edge="1" source="CQZ54zgjUK83hAeRp2dm-40" target="CQZ54zgjUK83hAeRp2dm-42" parent="1">
          <mxGeometry relative="1" as="geometry">
            <Array as="points">
              <mxPoint x="36" y="276" />
              <mxPoint x="6" y="276" />
            </Array>
          </mxGeometry>
        </mxCell>
        <mxCell id="CQZ54zgjUK83hAeRp2dm-40" value="财务指标" style="rounded=0;whiteSpace=wrap;html=1;fillColor=#dae8fc;strokeColor=#6c8ebf;" vertex="1" parent="1">
          <mxGeometry x="26" y="216" width="90" height="30" as="geometry" />
        </mxCell>
        <mxCell id="CQZ54zgjUK83hAeRp2dm-41" value="非财务指标" style="rounded=0;whiteSpace=wrap;html=1;fillColor=#dae8fc;strokeColor=#6c8ebf;" vertex="1" parent="1">
          <mxGeometry x="166" y="216" width="80" height="30" as="geometry" />
        </mxCell>
        <mxCell id="CQZ54zgjUK83hAeRp2dm-42" value="企业数字标识" style="rounded=0;whiteSpace=wrap;html=1;fillColor=#d5e8d4;strokeColor=#82b366;" vertex="1" parent="1">
          <mxGeometry x="-4" y="296" width="80" height="30" as="geometry" />
        </mxCell>
        <mxCell id="CQZ54zgjUK83hAeRp2dm-43" style="edgeStyle=orthogonalEdgeStyle;rounded=0;orthogonalLoop=1;jettySize=auto;html=1;fontSize=15;strokeColor=#1A1A1A;entryX=0.5;entryY=0;entryDx=0;entryDy=0;exitX=0.5;exitY=1;exitDx=0;exitDy=0;" edge="1" source="CQZ54zgjUK83hAeRp2dm-41" target="CQZ54zgjUK83hAeRp2dm-44" parent="1">
          <mxGeometry relative="1" as="geometry">
            <mxPoint x="216" y="246" as="targetPoint" />
            <Array as="points">
              <mxPoint x="216" y="276" />
              <mxPoint x="126" y="276" />
            </Array>
          </mxGeometry>
        </mxCell>
        <mxCell id="CQZ54zgjUK83hAeRp2dm-44" value="信用评价等级" style="rounded=0;whiteSpace=wrap;html=1;fillColor=#d5e8d4;strokeColor=#82b366;" vertex="1" parent="1">
          <mxGeometry x="91.5" y="296" width="90" height="30" as="geometry" />
        </mxCell>
        <mxCell id="CQZ54zgjUK83hAeRp2dm-45" value="评价时间" style="rounded=0;whiteSpace=wrap;html=1;fillColor=#d5e8d4;strokeColor=#82b366;" vertex="1" parent="1">
          <mxGeometry x="206" y="296" width="70" height="30" as="geometry" />
        </mxCell>
        <mxCell id="CQZ54zgjUK83hAeRp2dm-46" value="信用数据及企业数据" style="rounded=0;whiteSpace=wrap;html=1;fillColor=#f8cecc;strokeColor=#b85450;" vertex="1" parent="1">
          <mxGeometry x="76" y="356" width="120" height="30" as="geometry" />
        </mxCell>
        <mxCell id="CQZ54zgjUK83hAeRp2dm-47" value="&lt;font style=&quot;font-size: 15px;&quot;&gt;信用评价模型&lt;/font&gt;" style="text;html=1;strokeColor=none;fillColor=none;align=center;verticalAlign=middle;whiteSpace=wrap;rounded=0;" vertex="1" parent="1">
          <mxGeometry x="81.5" y="186" width="100" height="30" as="geometry" />
        </mxCell>
        <mxCell id="CQZ54zgjUK83hAeRp2dm-48" value="" style="endArrow=classic;html=1;rounded=0;fontSize=15;strokeColor=#1A1A1A;entryX=0.5;entryY=0;entryDx=0;entryDy=0;" edge="1" target="CQZ54zgjUK83hAeRp2dm-45" parent="1">
          <mxGeometry width="50" height="50" relative="1" as="geometry">
            <mxPoint x="206" y="246" as="sourcePoint" />
            <mxPoint x="216" y="436" as="targetPoint" />
            <Array as="points">
              <mxPoint x="206" y="276" />
              <mxPoint x="241" y="276" />
            </Array>
          </mxGeometry>
        </mxCell>
        <mxCell id="CQZ54zgjUK83hAeRp2dm-49" value="" style="endArrow=classic;html=1;rounded=0;fontSize=15;strokeColor=#1A1A1A;entryX=0.5;entryY=0;entryDx=0;entryDy=0;exitX=0.5;exitY=1;exitDx=0;exitDy=0;" edge="1" source="CQZ54zgjUK83hAeRp2dm-44" target="CQZ54zgjUK83hAeRp2dm-46" parent="1">
          <mxGeometry width="50" height="50" relative="1" as="geometry">
            <mxPoint x="166" y="486" as="sourcePoint" />
            <mxPoint x="216" y="436" as="targetPoint" />
          </mxGeometry>
        </mxCell>
        <mxCell id="CQZ54zgjUK83hAeRp2dm-50" value="" style="endArrow=none;html=1;rounded=0;fontSize=15;strokeColor=#1A1A1A;" edge="1" parent="1">
          <mxGeometry width="50" height="50" relative="1" as="geometry">
            <mxPoint x="66" y="276" as="sourcePoint" />
            <mxPoint x="136" y="276" as="targetPoint" />
          </mxGeometry>
        </mxCell>
      </root>
    </mxGraphModel>
  </diagram>
</mxfile>
